<?xml version="1.0" encoding="UTF-8" standalone="no"?>
<!-- Created with Inkscape (http://www.inkscape.org/) -->

<svg
   xmlns:dc="http://purl.org/dc/elements/1.1/"
   xmlns:cc="http://creativecommons.org/ns#"
   xmlns:rdf="http://www.w3.org/1999/02/22-rdf-syntax-ns#"
   xmlns:svg="http://www.w3.org/2000/svg"
   xmlns="http://www.w3.org/2000/svg"
   xmlns:sodipodi="http://sodipodi.sourceforge.net/DTD/sodipodi-0.dtd"
   xmlns:inkscape="http://www.inkscape.org/namespaces/inkscape"
   width="20.782221cm"
   height="19.010805cm"
   viewBox="0 0 736.37789 673.6112"
   id="svg4191"
   version="1.1"
   inkscape:version="0.91 r13725"
   sodipodi:docname="cat1.svg"
   inkscape:export-filename="/home/cedric/inside/github/stereogram/cat1.png"
   inkscape:export-xdpi="200"
   inkscape:export-ydpi="200">
  <defs
     id="defs4193" />
  <sodipodi:namedview
     id="base"
     pagecolor="#ffffff"
     bordercolor="#666666"
     borderopacity="1.0"
     inkscape:pageopacity="0.0"
     inkscape:pageshadow="2"
     inkscape:zoom="0.7"
     inkscape:cx="350.76022"
     inkscape:cy="325.10763"
     inkscape:document-units="px"
     inkscape:current-layer="layer1"
     showgrid="true"
     inkscape:snap-bbox="true"
     inkscape:bbox-nodes="false"
     units="cm"
     fit-margin-top="0"
     fit-margin-left="0"
     fit-margin-right="0"
     fit-margin-bottom="0"
     inkscape:window-width="1366"
     inkscape:window-height="702"
     inkscape:window-x="0"
     inkscape:window-y="27"
     inkscape:window-maximized="1"
     inkscape:snap-nodes="false"
     inkscape:object-paths="false"
     inkscape:snap-intersection-paths="false"
     inkscape:object-nodes="true"
     inkscape:snap-global="true"
     inkscape:snap-bbox-midpoints="true">
    <inkscape:grid
       type="xygrid"
       id="grid4739"
       units="cm"
       spacingx="8.8582674"
       spacingy="8.8582679"
       originx="-384.76378"
       originy="-11.505859"
       visible="true" />
  </sodipodi:namedview>
  <metadata
     id="metadata4196">
    <rdf:RDF>
      <cc:Work
         rdf:about="">
        <dc:format>image/svg+xml</dc:format>
        <dc:type
           rdf:resource="http://purl.org/dc/dcmitype/StillImage" />
        <dc:title></dc:title>
      </cc:Work>
    </rdf:RDF>
  </metadata>
  <g
     inkscape:label="Layer 1"
     inkscape:groupmode="layer"
     id="layer1"
     transform="translate(-384.76381,-367.24513)">
    <circle
       r="141.73228"
       cy="698.03149"
       cx="531.49609"
       id="circle4753"
       style="fill:none;fill-opacity:1;fill-rule:evenodd;stroke:#000000;stroke-width:10;stroke-linecap:butt;stroke-linejoin:miter;stroke-miterlimit:4;stroke-dasharray:none;stroke-opacity:1" />
    <circle
       style="fill:none;fill-opacity:1;fill-rule:evenodd;stroke:#000000;stroke-width:10;stroke-linecap:butt;stroke-linejoin:miter;stroke-miterlimit:4;stroke-dasharray:none;stroke-opacity:1"
       id="circle4755"
       cx="531.49609"
       cy="485.43307"
       r="70.866142" />
    <g
       id="g7635"
       transform="translate(-17.716537,3.0558256e-6)">
      <path
         sodipodi:nodetypes="cc"
         inkscape:connector-curvature="0"
         id="path7629"
         d="m 620.07874,476.57481 44.29134,-8.85827"
         style="opacity:1;fill:none;fill-opacity:1;stroke:#000000;stroke-width:3.54299998;stroke-linecap:round;stroke-linejoin:round;stroke-miterlimit:4;stroke-dasharray:none;stroke-opacity:1" />
      <path
         sodipodi:nodetypes="cc"
         style="opacity:1;fill:none;fill-opacity:1;stroke:#000000;stroke-width:3.54299998;stroke-linecap:round;stroke-linejoin:round;stroke-miterlimit:4;stroke-dasharray:none;stroke-opacity:1"
         d="m 620.07874,494.29135 44.29134,8.85826"
         id="path7631"
         inkscape:connector-curvature="0" />
      <path
         inkscape:connector-curvature="0"
         id="path7633"
         d="m 620.07874,485.43308 44.29134,0"
         style="opacity:1;fill:none;fill-opacity:1;stroke:#000000;stroke-width:3.54299998;stroke-linecap:round;stroke-linejoin:round;stroke-miterlimit:4;stroke-dasharray:none;stroke-opacity:1" />
    </g>
    <path
       style="opacity:1;fill:#000000;fill-opacity:1;stroke:none;stroke-width:3.54299998;stroke-linecap:round;stroke-linejoin:round;stroke-miterlimit:4;stroke-dasharray:none;stroke-opacity:1"
       d="m 487.20472,432.28347 c 6.96135,-17.85314 2.65307,-45.74785 -4.77878,-65.03834 12.40552,13.71436 40.66434,21.78653 40.21186,47.32181 z"
       id="path7650"
       inkscape:connector-curvature="0"
       sodipodi:nodetypes="cccc" />
    <path
       style="color:#000000;font-style:normal;font-variant:normal;font-weight:normal;font-stretch:normal;font-size:medium;line-height:normal;font-family:sans-serif;text-indent:0;text-align:start;text-decoration:none;text-decoration-line:none;text-decoration-style:solid;text-decoration-color:#000000;letter-spacing:normal;word-spacing:normal;text-transform:none;direction:ltr;block-progression:tb;writing-mode:lr-tb;baseline-shift:baseline;text-anchor:start;white-space:normal;clip-rule:nonzero;display:inline;overflow:visible;visibility:visible;opacity:1;isolation:auto;mix-blend-mode:normal;color-interpolation:sRGB;color-interpolation-filters:linearRGB;solid-color:#000000;solid-opacity:1;fill:#000000;fill-opacity:1;fill-rule:nonzero;stroke:none;stroke-width:30;stroke-linecap:round;stroke-linejoin:round;stroke-miterlimit:4;stroke-dasharray:none;stroke-dashoffset:0;stroke-opacity:1;color-rendering:auto;image-rendering:auto;shape-rendering:auto;text-rendering:auto;enable-background:accumulate"
       d="m 532.04297,824.56836 c -10.08885,-0.40322 -28.79883,3.01335 -26.21129,12.77306 2.49775,10.34814 7.84973,18.45124 9.25739,23.79731 0.82833,3.14585 -0.39574,18.60332 -2.93282,19.58002 -2.53708,0.9767 -9.8944,-1.44397 -16.988,-2.64567 -3.79566,-0.64301 -8.86724,-5.24395 -20.40926,-12.73597 -11.54203,-7.49202 -28.4295,-10.82616 -50.63985,-2.76289 -20.96477,7.61107 -33.0113,26.26829 -34.79883,44.69726 -1.78752,18.42898 4.94406,37.26419 19.21875,50.15625 10.7323,9.69279 21.56221,15.1377 32.07422,16.64063 10.51201,1.50293 19.52407,-0.82614 26.69336,-2.91016 14.33858,-4.16803 21.04105,-8.2467 37.87695,-0.15429 4.85194,2.33215 6.10963,4.37774 6.98047,7.03711 0.87085,2.65936 0.88382,6.6716 -0.64648,11.38281 -3.06061,9.42241 -12.87988,19.69367 -20.19727,22.13277 -7.9691,2.5383 -12.32357,11.1031 -9.67895,19.0375 2.64462,7.9345 11.26692,12.174 19.16528,9.4235 19.25742,-6.4192 33.17463,-22.6405 39.24414,-41.32619 3.03476,-9.34284 3.96276,-19.7876 0.62305,-29.98633 -3.33972,-10.19874 -11.41694,-19.41387 -22.49414,-24.73828 -25.3574,-12.18838 -46.79241,-5.23536 -59.2461,-1.61524 -6.22684,1.81006 -10.27309,2.56299 -14.07421,2.01953 -3.80113,-0.54345 -8.53686,-2.27448 -16.2129,-9.20703 -6.58361,-5.94593 -10.32099,-16.18955 -9.46679,-24.99609 0.85419,-8.80655 4.55816,-15.5399 15.17578,-19.39453 14.97852,-5.43782 18.92997,-2.89948 26.08984,1.74804 7.15987,4.64753 15.79728,15.3698 32.56836,18.21094 10.8734,1.84203 20.96035,1.43236 29.92188,-2.01758 8.96153,-3.44994 16.26919,-10.21295 20.56445,-18.1582 8.59052,-15.89049 18.59246,-36.72416 13.66051,-56.45195 -1.54239,-6.56114 -18.38289,-9.26785 -25.11754,-9.53633 z"
       id="path7656"
       inkscape:connector-curvature="0"
       sodipodi:nodetypes="ccsssssssssssscscsssssssssssscc" />
    <circle
       style="fill:none;fill-opacity:1;fill-rule:evenodd;stroke:#000000;stroke-width:10;stroke-linecap:butt;stroke-linejoin:miter;stroke-miterlimit:4;stroke-dasharray:none;stroke-opacity:1"
       id="circle7660"
       cx="974.40942"
       cy="698.03149"
       r="141.73228" />
    <circle
       r="70.866142"
       cy="485.43307"
       cx="974.40942"
       id="circle7662"
       style="fill:none;fill-opacity:1;fill-rule:evenodd;stroke:#000000;stroke-width:10;stroke-linecap:butt;stroke-linejoin:miter;stroke-miterlimit:4;stroke-dasharray:none;stroke-opacity:1" />
    <g
       id="g7672"
       transform="matrix(-1,0,0,1,1523.622,-1.5769458e-6)">
      <path
         sodipodi:nodetypes="cc"
         inkscape:connector-curvature="0"
         id="path7674"
         d="m 620.07874,476.57481 44.29134,-8.85827"
         style="opacity:1;fill:none;fill-opacity:1;stroke:#000000;stroke-width:3.54299998;stroke-linecap:round;stroke-linejoin:round;stroke-miterlimit:4;stroke-dasharray:none;stroke-opacity:1" />
      <path
         sodipodi:nodetypes="cc"
         style="opacity:1;fill:none;fill-opacity:1;stroke:#000000;stroke-width:3.54299998;stroke-linecap:round;stroke-linejoin:round;stroke-miterlimit:4;stroke-dasharray:none;stroke-opacity:1"
         d="m 620.07874,494.29135 44.29134,8.85826"
         id="path7676"
         inkscape:connector-curvature="0" />
      <path
         inkscape:connector-curvature="0"
         id="path7678"
         d="m 620.07874,485.43308 44.29134,0"
         style="opacity:1;fill:none;fill-opacity:1;stroke:#000000;stroke-width:3.54299998;stroke-linecap:round;stroke-linejoin:round;stroke-miterlimit:4;stroke-dasharray:none;stroke-opacity:1" />
    </g>
    <path
       style="opacity:1;fill:#000000;fill-opacity:1;stroke:none;stroke-width:3.54299998;stroke-linecap:round;stroke-linejoin:round;stroke-miterlimit:4;stroke-dasharray:none;stroke-opacity:1"
       d="m 1018.7007,432.28347 c -6.9613,-17.85314 -2.653,-45.74785 4.7788,-65.03834 -12.4055,13.71436 -40.66433,21.78653 -40.21193,47.32181 z"
       id="path7682"
       inkscape:connector-curvature="0"
       sodipodi:nodetypes="cccc" />
  </g>
</svg>
