<?xml version="1.0" encoding="UTF-8" standalone="no"?>
<!-- Created with Inkscape (http://www.inkscape.org/) -->

<svg
   xmlns:dc="http://purl.org/dc/elements/1.1/"
   xmlns:cc="http://creativecommons.org/ns#"
   xmlns:rdf="http://www.w3.org/1999/02/22-rdf-syntax-ns#"
   xmlns:svg="http://www.w3.org/2000/svg"
   xmlns="http://www.w3.org/2000/svg"
   xmlns:sodipodi="http://sodipodi.sourceforge.net/DTD/sodipodi-0.dtd"
   xmlns:inkscape="http://www.inkscape.org/namespaces/inkscape"
   width="210mm"
   height="297mm"
   viewBox="0 0 210 297"
   version="1.1"
   id="svg8"
   inkscape:version="0.92.4 (5da689c313, 2019-01-14)"
   sodipodi:docname="rings and numbers.svg">
  <defs
     id="defs2" />
  <sodipodi:namedview
     id="base"
     pagecolor="#ffffff"
     bordercolor="#666666"
     borderopacity="1.0"
     inkscape:pageopacity="0.0"
     inkscape:pageshadow="2"
     inkscape:zoom="0.57386457"
     inkscape:cx="202.4289"
     inkscape:cy="522.72559"
     inkscape:document-units="mm"
     inkscape:current-layer="layer9"
     showgrid="false"
     inkscape:window-width="1920"
     inkscape:window-height="1057"
     inkscape:window-x="-8"
     inkscape:window-y="-8"
     inkscape:window-maximized="1" />
  <metadata
     id="metadata5">
    <rdf:RDF>
      <cc:Work
         rdf:about="">
        <dc:format>image/svg+xml</dc:format>
        <dc:type
           rdf:resource="http://purl.org/dc/dcmitype/StillImage" />
        <dc:title />
      </cc:Work>
    </rdf:RDF>
  </metadata>
  <g
     inkscape:groupmode="layer"
     id="layer9"
     inkscape:label="Layer 1"
     style="display:inline">
    <rect
       style="opacity:1;fill:#ffffff;fill-opacity:1;fill-rule:nonzero;stroke:none;stroke-width:2.64583325;stroke-miterlimit:4;stroke-dasharray:none;stroke-opacity:1"
       id="rect901"
       width="210"
       height="297"
       x="0"
       y="0" />
    <g
       style="display:inline"
       id="g4683"
       transform="translate(5.5180526,-19.678361)">
      <text
         id="text4645"
         y="30.131376"
         x="4.0168595"
         style="font-style:normal;font-weight:normal;font-size:10.58333302px;line-height:100%;font-family:sans-serif;letter-spacing:0px;word-spacing:0px;fill:#000000;fill-opacity:1;stroke:none;stroke-width:0.26458332px;stroke-linecap:butt;stroke-linejoin:miter;stroke-opacity:1"
         xml:space="preserve"><tspan
           style="font-style:normal;font-variant:normal;font-weight:bold;font-stretch:normal;font-size:6.3499999px;font-family:Arial;-inkscape-font-specification:'Arial Bold';stroke-width:0.26458332px"
           y="30.131376"
           x="4.0168595"
           id="tspan4643"
           sodipodi:role="line">RINGS TRAINER</tspan></text>
      <text
         id="text4649"
         y="34.242378"
         x="4.2778254"
         style="font-style:normal;font-weight:normal;font-size:10.58333302px;line-height:100%;font-family:sans-serif;letter-spacing:0px;word-spacing:0px;fill:#000000;fill-opacity:1;stroke:none;stroke-width:0.26458332px;stroke-linecap:butt;stroke-linejoin:miter;stroke-opacity:1"
         xml:space="preserve"><tspan
           id="tspan4659"
           style="font-style:normal;font-variant:normal;font-weight:normal;font-stretch:normal;font-size:2.64583349px;font-family:Arial;-inkscape-font-specification:Arial;stroke-width:0.26458332px"
           y="34.242378"
           x="4.2778254"
           sodipodi:role="line">Porre il foglio a una distanza di 40 cm dagli occhi</tspan></text>
      <text
         xml:space="preserve"
         style="font-style:normal;font-weight:normal;font-size:10.58333302px;line-height:100%;font-family:sans-serif;letter-spacing:0px;word-spacing:0px;fill:#000000;fill-opacity:1;stroke:none;stroke-width:0.26458332px;stroke-linecap:butt;stroke-linejoin:miter;stroke-opacity:1"
         x="4.2778254"
         y="37.681961"
         id="text4665"><tspan
           id="tspan4671"
           sodipodi:role="line"
           x="4.2778254"
           y="37.681961"
           style="font-style:normal;font-variant:normal;font-weight:normal;font-stretch:normal;font-size:2.64583349px;font-family:Arial;-inkscape-font-specification:Arial;stroke-width:0.26458332px">Poner la hoja a una distancia de 40 cm de los ojos</tspan></text>
      <text
         id="text4669"
         y="41.121548"
         x="4.2778254"
         style="font-style:normal;font-weight:normal;font-size:10.58333302px;line-height:100%;font-family:sans-serif;letter-spacing:0px;word-spacing:0px;fill:#000000;fill-opacity:1;stroke:none;stroke-width:0.26458332px;stroke-linecap:butt;stroke-linejoin:miter;stroke-opacity:1"
         xml:space="preserve"><tspan
           id="tspan4667"
           style="font-style:normal;font-variant:normal;font-weight:normal;font-stretch:normal;font-size:2.64583349px;font-family:Arial;-inkscape-font-specification:Arial;stroke-width:0.26458332px"
           y="41.121548"
           x="4.2778254"
           sodipodi:role="line">Put the sheet at a distance of 40 cm from your eyes</tspan></text>
    </g>
    <path
       style="display:inline;opacity:1;fill:#000000;fill-opacity:1;fill-rule:nonzero;stroke:none;stroke-width:3.55946875;stroke-miterlimit:4;stroke-dasharray:none;stroke-opacity:1"
       id="path4695"
       sodipodi:type="arc"
       sodipodi:cx="90.799995"
       sodipodi:cy="46.300007"
       sodipodi:rx="12"
       sodipodi:ry="12"
       sodipodi:start="0"
       sodipodi:end="6.2821556"
       d="M 102.8,46.300007 A 12,12 0 0 1 90.803085,58.300006 12,12 0 0 1 78.799997,46.306185 12,12 0 0 1 90.790728,34.30001 12,12 0 0 1 102.79999,46.28765 l -11.999995,0.01236 z" />
    <path
       d="m 101.79999,84.450012 a 14.45,14.45 0 0 1 -14.446279,14.45 14.45,14.45 0 0 1 -14.453718,-14.44256 14.45,14.45 0 0 1 14.438838,-14.457435 14.45,14.45 0 0 1 14.461149,14.435116 l -14.449989,0.01488 z"
       sodipodi:end="6.2821556"
       sodipodi:start="0"
       sodipodi:ry="14.45"
       sodipodi:rx="14.45"
       sodipodi:cy="84.450012"
       sodipodi:cx="87.349991"
       sodipodi:type="arc"
       id="path4840"
       style="display:inline;opacity:1;fill:#000000;fill-opacity:1;fill-rule:nonzero;stroke:none;stroke-width:4.28619146;stroke-miterlimit:4;stroke-dasharray:none;stroke-opacity:1" />
    <path
       style="display:inline;opacity:1;fill:#000000;fill-opacity:1;fill-rule:nonzero;stroke:none;stroke-width:4.28619146;stroke-miterlimit:4;stroke-dasharray:none;stroke-opacity:1"
       id="path4956"
       sodipodi:type="arc"
       sodipodi:cx="84.149994"
       sodipodi:cy="122.95002"
       sodipodi:rx="14.45"
       sodipodi:ry="14.45"
       sodipodi:start="0"
       sodipodi:end="6.2821556"
       d="m 98.599994,122.95002 a 14.45,14.45 0 0 1 -14.44628,14.45 14.45,14.45 0 0 1 -14.453718,-14.44256 14.45,14.45 0 0 1 14.438838,-14.45744 14.45,14.45 0 0 1 14.461152,14.43512 l -14.449992,0.0149 z" />
    <path
       d="m 92.999995,172.35001 a 14.45,14.45 0 0 1 -14.44628,14.45 14.45,14.45 0 0 1 -14.453717,-14.44256 14.45,14.45 0 0 1 14.438838,-14.45744 14.45,14.45 0 0 1 14.461152,14.43512 l -14.449993,0.0149 z"
       sodipodi:end="6.2821556"
       sodipodi:start="0"
       sodipodi:ry="14.45"
       sodipodi:rx="14.45"
       sodipodi:cy="172.35001"
       sodipodi:cx="78.549995"
       sodipodi:type="arc"
       id="path4966"
       style="display:inline;opacity:1;fill:#000000;fill-opacity:1;fill-rule:nonzero;stroke:none;stroke-width:4.28619146;stroke-miterlimit:4;stroke-dasharray:none;stroke-opacity:1" />
    <path
       style="display:inline;opacity:1;fill:#000000;fill-opacity:1;fill-rule:nonzero;stroke:none;stroke-width:4.28619146;stroke-miterlimit:4;stroke-dasharray:none;stroke-opacity:1"
       id="path4976"
       sodipodi:type="arc"
       sodipodi:cx="73.749992"
       sodipodi:cy="217.95"
       sodipodi:rx="14.45"
       sodipodi:ry="14.45"
       sodipodi:start="0"
       sodipodi:end="6.2821556"
       d="M 88.199992,217.95 A 14.45,14.45 0 0 1 73.753712,232.4 14.45,14.45 0 0 1 59.299994,217.95744 14.45,14.45 0 0 1 73.738833,203.5 14.45,14.45 0 0 1 88.199985,217.93512 L 73.749992,217.95 Z" />
    <path
       d="m 83.999995,260.54999 a 14.45,14.45 0 0 1 -14.44628,14.45 14.45,14.45 0 0 1 -14.453717,-14.44256 14.45,14.45 0 0 1 14.438838,-14.45744 14.45,14.45 0 0 1 14.461152,14.43512 l -14.449993,0.0149 z"
       sodipodi:end="6.2821556"
       sodipodi:start="0"
       sodipodi:ry="14.45"
       sodipodi:rx="14.45"
       sodipodi:cy="260.54999"
       sodipodi:cx="69.549995"
       sodipodi:type="arc"
       id="path4986"
       style="display:inline;opacity:1;fill:#000000;fill-opacity:1;fill-rule:nonzero;stroke:none;stroke-width:4.28619146;stroke-miterlimit:4;stroke-dasharray:none;stroke-opacity:1" />
    <path
       d="M 101.45,46.300007 A 10.65,10.65 0 0 1 90.802737,56.950006 10.65,10.65 0 0 1 80.149997,46.30549 10.65,10.65 0 0 1 90.791771,35.65001 10.65,10.65 0 0 1 101.44999,46.28904 l -10.649995,0.01097 z"
       sodipodi:end="6.2821556"
       sodipodi:start="0"
       sodipodi:ry="10.65"
       sodipodi:rx="10.65"
       sodipodi:cy="46.300007"
       sodipodi:cx="90.799995"
       sodipodi:type="arc"
       id="path4702"
       style="display:inline;opacity:1;fill:#ffffff;fill-opacity:1;fill-rule:nonzero;stroke:none;stroke-width:3.15902877;stroke-miterlimit:4;stroke-dasharray:none;stroke-opacity:1" />
    <path
       style="display:inline;opacity:1;fill:#ffffff;fill-opacity:1;fill-rule:nonzero;stroke:none;stroke-width:3.85609055;stroke-miterlimit:4;stroke-dasharray:none;stroke-opacity:1"
       id="path4842"
       sodipodi:type="arc"
       sodipodi:cx="87.249992"
       sodipodi:cy="84.500008"
       sodipodi:rx="13"
       sodipodi:ry="13"
       sodipodi:start="0"
       sodipodi:end="6.2821556"
       d="M 100.24999,84.500008 A 13,13 0 0 1 87.253339,97.500007 13,13 0 0 1 74.249994,84.506701 13,13 0 0 1 87.239953,71.500012 13,13 0 0 1 100.24999,84.486621 l -12.999998,0.01339 z" />
    <path
       d="m 97.049995,123.00001 a 13,13 0 0 1 -12.996653,13 13,13 0 0 1 -13.003345,-12.99331 13,13 0 0 1 12.989959,-13.00669 13,13 0 0 1 13.010033,12.98661 l -12.999994,0.0134 z"
       sodipodi:end="6.2821556"
       sodipodi:start="0"
       sodipodi:ry="13"
       sodipodi:rx="13"
       sodipodi:cy="123.00001"
       sodipodi:cx="84.049995"
       sodipodi:type="arc"
       id="path4958"
       style="display:inline;opacity:1;fill:#ffffff;fill-opacity:1;fill-rule:nonzero;stroke:none;stroke-width:3.85609055;stroke-miterlimit:4;stroke-dasharray:none;stroke-opacity:1" />
    <path
       style="display:inline;opacity:1;fill:#ffffff;fill-opacity:1;fill-rule:nonzero;stroke:none;stroke-width:3.85609055;stroke-miterlimit:4;stroke-dasharray:none;stroke-opacity:1"
       id="path4968"
       sodipodi:type="arc"
       sodipodi:cx="78.449997"
       sodipodi:cy="172.39999"
       sodipodi:rx="13"
       sodipodi:ry="13"
       sodipodi:start="0"
       sodipodi:end="6.2821556"
       d="m 91.449997,172.39999 a 13,13 0 0 1 -12.996654,13 A 13,13 0 0 1 65.449999,172.40669 13,13 0 0 1 78.439957,159.4 13,13 0 0 1 91.44999,172.38661 l -12.999993,0.0134 z" />
    <path
       d="M 86.649994,218 A 13,13 0 0 1 73.65334,231 13,13 0 0 1 60.649996,218.00669 13,13 0 0 1 73.639954,205 13,13 0 0 1 86.649987,217.98661 L 73.649994,218 Z"
       sodipodi:end="6.2821556"
       sodipodi:start="0"
       sodipodi:ry="13"
       sodipodi:rx="13"
       sodipodi:cy="218"
       sodipodi:cx="73.649994"
       sodipodi:type="arc"
       id="path4978"
       style="display:inline;opacity:1;fill:#ffffff;fill-opacity:1;fill-rule:nonzero;stroke:none;stroke-width:3.85609055;stroke-miterlimit:4;stroke-dasharray:none;stroke-opacity:1" />
    <path
       style="display:inline;opacity:1;fill:#ffffff;fill-opacity:1;fill-rule:nonzero;stroke:none;stroke-width:3.85609055;stroke-miterlimit:4;stroke-dasharray:none;stroke-opacity:1"
       id="path4988"
       sodipodi:type="arc"
       sodipodi:cx="69.449997"
       sodipodi:cy="260.59998"
       sodipodi:rx="13"
       sodipodi:ry="13"
       sodipodi:start="0"
       sodipodi:end="6.2821556"
       d="m 82.449997,260.59998 a 13,13 0 0 1 -12.996654,13 13,13 0 0 1 -13.003344,-12.99331 13,13 0 0 1 12.989958,-13.00669 13,13 0 0 1 13.010033,12.98661 l -12.999993,0.0134 z" />
    <path
       style="display:inline;opacity:1;fill:#000000;fill-opacity:1;fill-rule:nonzero;stroke:none;stroke-width:2.37297893;stroke-miterlimit:4;stroke-dasharray:none;stroke-opacity:1"
       id="path4704"
       sodipodi:type="arc"
       sodipodi:cx="92.499992"
       sodipodi:cy="46.300007"
       sodipodi:rx="8"
       sodipodi:ry="8"
       sodipodi:start="0"
       sodipodi:end="6.2821556"
       d="m 100.49999,46.300007 a 8,8 0 0 1 -7.997938,8 8,8 0 0 1 -8.002059,-7.995881 8,8 0 0 1 7.993821,-8.004117 8,8 0 0 1 8.006176,7.99176 l -7.999998,0.0082 z" />
    <path
       d="m 98.849991,84.875008 a 9.75,9.75 0 0 1 -9.74749,9.749999 9.75,9.75 0 0 1 -9.752509,-9.74498 9.75,9.75 0 0 1 9.742469,-9.755016 9.75,9.75 0 0 1 9.757525,9.739957 l -9.749995,0.01004 z"
       sodipodi:end="6.2821556"
       sodipodi:start="0"
       sodipodi:ry="9.75"
       sodipodi:rx="9.75"
       sodipodi:cy="84.875008"
       sodipodi:cx="89.099991"
       sodipodi:type="arc"
       id="path4844"
       style="display:inline;opacity:1;fill:#000000;fill-opacity:1;fill-rule:nonzero;stroke:none;stroke-width:2.89206648;stroke-miterlimit:4;stroke-dasharray:none;stroke-opacity:1" />
    <path
       style="display:inline;opacity:1;fill:#000000;fill-opacity:1;fill-rule:nonzero;stroke:none;stroke-width:2.89206648;stroke-miterlimit:4;stroke-dasharray:none;stroke-opacity:1"
       id="path4960"
       sodipodi:type="arc"
       sodipodi:cx="85.899994"
       sodipodi:cy="123.37501"
       sodipodi:rx="9.75"
       sodipodi:ry="9.75"
       sodipodi:start="0"
       sodipodi:end="6.2821556"
       d="m 95.649994,123.37501 a 9.75,9.75 0 0 1 -9.74749,9.75 9.75,9.75 0 0 1 -9.752509,-9.74498 9.75,9.75 0 0 1 9.742469,-9.75502 9.75,9.75 0 0 1 9.757525,9.73996 l -9.749995,0.01 z" />
    <path
       d="m 90.049995,172.77499 a 9.75,9.75 0 0 1 -9.74749,9.75 9.75,9.75 0 0 1 -9.752508,-9.74498 9.75,9.75 0 0 1 9.742469,-9.75501 9.75,9.75 0 0 1 9.757524,9.73995 l -9.749995,0.01 z"
       sodipodi:end="6.2821556"
       sodipodi:start="0"
       sodipodi:ry="9.75"
       sodipodi:rx="9.75"
       sodipodi:cy="172.77499"
       sodipodi:cx="80.299995"
       sodipodi:type="arc"
       id="path4970"
       style="display:inline;opacity:1;fill:#000000;fill-opacity:1;fill-rule:nonzero;stroke:none;stroke-width:2.89206648;stroke-miterlimit:4;stroke-dasharray:none;stroke-opacity:1" />
    <path
       style="display:inline;opacity:1;fill:#000000;fill-opacity:1;fill-rule:nonzero;stroke:none;stroke-width:2.89206648;stroke-miterlimit:4;stroke-dasharray:none;stroke-opacity:1"
       id="path4980"
       sodipodi:type="arc"
       sodipodi:cx="75.499992"
       sodipodi:cy="218.375"
       sodipodi:rx="9.75"
       sodipodi:ry="9.75"
       sodipodi:start="0"
       sodipodi:end="6.2821556"
       d="m 85.249992,218.375 a 9.75,9.75 0 0 1 -9.74749,9.75 9.75,9.75 0 0 1 -9.752508,-9.74498 9.75,9.75 0 0 1 9.742469,-9.75502 9.75,9.75 0 0 1 9.757524,9.73996 l -9.749995,0.01 z" />
    <path
       d="m 81.049995,260.97498 a 9.75,9.75 0 0 1 -9.74749,9.75 9.75,9.75 0 0 1 -9.752508,-9.74498 9.75,9.75 0 0 1 9.742469,-9.75502 9.75,9.75 0 0 1 9.757524,9.73996 l -9.749995,0.01 z"
       sodipodi:end="6.2821556"
       sodipodi:start="0"
       sodipodi:ry="9.75"
       sodipodi:rx="9.75"
       sodipodi:cy="260.97498"
       sodipodi:cx="71.299995"
       sodipodi:type="arc"
       id="path4990"
       style="display:inline;opacity:1;fill:#000000;fill-opacity:1;fill-rule:nonzero;stroke:none;stroke-width:2.89206648;stroke-miterlimit:4;stroke-dasharray:none;stroke-opacity:1" />
    <path
       d="m 99.149992,46.300007 a 6.6500001,6.6500001 0 0 1 -6.648288,6.65 6.6500001,6.6500001 0 0 1 -6.651711,-6.646576 6.6500001,6.6500001 0 0 1 6.644864,-6.653422 6.6500001,6.6500001 0 0 1 6.655132,6.64315 l -6.649997,0.0068 z"
       sodipodi:end="6.2821556"
       sodipodi:start="0"
       sodipodi:ry="6.6500001"
       sodipodi:rx="6.6500001"
       sodipodi:cy="46.300007"
       sodipodi:cx="92.499992"
       sodipodi:type="arc"
       id="path4706"
       style="display:inline;opacity:1;fill:#ffffff;fill-opacity:1;fill-rule:nonzero;stroke:none;stroke-width:1.97253978;stroke-miterlimit:4;stroke-dasharray:none;stroke-opacity:1" />
    <path
       style="display:inline;opacity:1;fill:#ffffff;fill-opacity:1;fill-rule:nonzero;stroke:none;stroke-width:2.46938109;stroke-miterlimit:4;stroke-dasharray:none;stroke-opacity:1"
       id="path4896"
       sodipodi:type="arc"
       sodipodi:cx="89.099991"
       sodipodi:cy="84.875008"
       sodipodi:rx="8.3249998"
       sodipodi:ry="8.3249998"
       sodipodi:start="0"
       sodipodi:end="6.2821556"
       d="m 97.424991,84.875008 a 8.3249998,8.3249998 0 0 1 -8.322857,8.324999 8.3249998,8.3249998 0 0 1 -8.327142,-8.320713 8.3249998,8.3249998 0 0 1 8.31857,-8.329284 8.3249998,8.3249998 0 0 1 8.331424,8.316425 l -8.324995,0.0086 z" />
    <path
       d="m 94.224994,123.37501 a 8.3249998,8.3249998 0 0 1 -8.322857,8.325 8.3249998,8.3249998 0 0 1 -8.327142,-8.32072 8.3249998,8.3249998 0 0 1 8.31857,-8.32928 8.3249998,8.3249998 0 0 1 8.331424,8.31643 l -8.324995,0.009 z"
       sodipodi:end="6.2821556"
       sodipodi:start="0"
       sodipodi:ry="8.3249998"
       sodipodi:rx="8.3249998"
       sodipodi:cy="123.37501"
       sodipodi:cx="85.899994"
       sodipodi:type="arc"
       id="path4962"
       style="display:inline;opacity:1;fill:#ffffff;fill-opacity:1;fill-rule:nonzero;stroke:none;stroke-width:2.46938109;stroke-miterlimit:4;stroke-dasharray:none;stroke-opacity:1" />
    <path
       style="display:inline;opacity:1;fill:#ffffff;fill-opacity:1;fill-rule:nonzero;stroke:none;stroke-width:2.46938109;stroke-miterlimit:4;stroke-dasharray:none;stroke-opacity:1"
       id="path4972"
       sodipodi:type="arc"
       sodipodi:cx="80.299995"
       sodipodi:cy="172.77499"
       sodipodi:rx="8.3249998"
       sodipodi:ry="8.3249998"
       sodipodi:start="0"
       sodipodi:end="6.2821556"
       d="m 88.624995,172.77499 a 8.3249998,8.3249998 0 0 1 -8.322856,8.325 8.3249998,8.3249998 0 0 1 -8.327142,-8.32071 8.3249998,8.3249998 0 0 1 8.318569,-8.32928 8.3249998,8.3249998 0 0 1 8.331425,8.31642 l -8.324996,0.009 z" />
    <path
       d="m 83.824992,218.375 a 8.3249998,8.3249998 0 0 1 -8.322857,8.325 8.3249998,8.3249998 0 0 1 -8.327141,-8.32071 8.3249998,8.3249998 0 0 1 8.318569,-8.32929 8.3249998,8.3249998 0 0 1 8.331425,8.31643 l -8.324996,0.009 z"
       sodipodi:end="6.2821556"
       sodipodi:start="0"
       sodipodi:ry="8.3249998"
       sodipodi:rx="8.3249998"
       sodipodi:cy="218.375"
       sodipodi:cx="75.499992"
       sodipodi:type="arc"
       id="path4982"
       style="display:inline;opacity:1;fill:#ffffff;fill-opacity:1;fill-rule:nonzero;stroke:none;stroke-width:2.46938109;stroke-miterlimit:4;stroke-dasharray:none;stroke-opacity:1" />
    <path
       style="display:inline;opacity:1;fill:#ffffff;fill-opacity:1;fill-rule:nonzero;stroke:none;stroke-width:2.46938109;stroke-miterlimit:4;stroke-dasharray:none;stroke-opacity:1"
       id="path4992"
       sodipodi:type="arc"
       sodipodi:cx="71.299995"
       sodipodi:cy="260.97498"
       sodipodi:rx="8.3249998"
       sodipodi:ry="8.3249998"
       sodipodi:start="0"
       sodipodi:end="6.2821556"
       d="m 79.624995,260.97498 a 8.3249998,8.3249998 0 0 1 -8.322856,8.325 8.3249998,8.3249998 0 0 1 -8.327142,-8.32072 8.3249998,8.3249998 0 0 1 8.318569,-8.32928 8.3249998,8.3249998 0 0 1 8.331425,8.31642 l -8.324996,0.009 z" />
    <text
       xml:space="preserve"
       style="font-style:normal;font-weight:normal;font-size:9.130126px;line-height:100%;font-family:sans-serif;letter-spacing:0px;word-spacing:0px;display:inline;fill:#000000;fill-opacity:1;stroke:none;stroke-width:0.22825307px;stroke-linecap:butt;stroke-linejoin:miter;stroke-opacity:1"
       x="95.676277"
       y="54.830509"
       id="text4824"
       transform="scale(0.99684986,1.0031601)"><tspan
         sodipodi:role="line"
         id="tspan4822"
         x="95.676277"
         y="54.830509"
         style="font-style:normal;font-variant:normal;font-weight:normal;font-stretch:normal;font-size:14.60819626px;font-family:arial;-inkscape-font-specification:arial;text-align:center;writing-mode:lr-tb;text-anchor:middle;stroke-width:0.22825307px">*</tspan></text>
    <text
       transform="scale(0.99684986,1.0031601)"
       id="text4938"
       y="88.470444"
       x="89.805"
       style="font-style:normal;font-weight:normal;font-size:9.130126px;line-height:100%;font-family:sans-serif;letter-spacing:0px;word-spacing:0px;display:inline;fill:#000000;fill-opacity:1;stroke:none;stroke-width:0.22825307px;stroke-linecap:butt;stroke-linejoin:miter;stroke-opacity:1"
       xml:space="preserve"><tspan
         style="font-style:normal;font-variant:normal;font-weight:bold;font-stretch:normal;font-size:12.69999981px;font-family:arial;-inkscape-font-specification:'arial Bold';text-align:center;writing-mode:lr-tb;text-anchor:middle;stroke-width:0.22825307px"
         y="88.470444"
         x="89.805"
         id="tspan4936"
         sodipodi:role="line">1</tspan></text>
    <text
       xml:space="preserve"
       style="font-style:normal;font-weight:normal;font-size:9.130126px;line-height:100%;font-family:sans-serif;letter-spacing:0px;word-spacing:0px;display:inline;fill:#000000;fill-opacity:1;stroke:none;stroke-width:0.22825307px;stroke-linecap:butt;stroke-linejoin:miter;stroke-opacity:1"
       x="85.692047"
       y="127.59681"
       id="text5101"
       transform="scale(0.99684986,1.0031601)"><tspan
         sodipodi:role="line"
         id="tspan5099"
         x="85.692047"
         y="127.59681"
         style="font-style:normal;font-variant:normal;font-weight:bold;font-stretch:normal;font-size:12.69999981px;font-family:arial;-inkscape-font-specification:'arial Bold';text-align:center;writing-mode:lr-tb;text-anchor:middle;stroke-width:0.22825307px">2</tspan></text>
    <text
       xml:space="preserve"
       style="font-style:normal;font-weight:normal;font-size:9.130126px;line-height:100%;font-family:sans-serif;letter-spacing:0px;word-spacing:0px;display:inline;fill:#000000;fill-opacity:1;stroke:none;stroke-width:0.22825307px;stroke-linecap:butt;stroke-linejoin:miter;stroke-opacity:1"
       x="80.501137"
       y="177.28426"
       id="text5109"
       transform="scale(0.99684986,1.0031601)"><tspan
         sodipodi:role="line"
         id="tspan5107"
         x="80.501137"
         y="177.28426"
         style="font-style:normal;font-variant:normal;font-weight:bold;font-stretch:normal;font-size:12.69999981px;font-family:arial;-inkscape-font-specification:'arial Bold';text-align:center;writing-mode:lr-tb;text-anchor:middle;stroke-width:0.22825307px">3</tspan></text>
    <text
       transform="scale(0.99684986,1.0031601)"
       id="text5113"
       y="222.29753"
       x="75.125282"
       style="font-style:normal;font-weight:normal;font-size:9.130126px;line-height:100%;font-family:sans-serif;letter-spacing:0px;word-spacing:0px;display:inline;fill:#000000;fill-opacity:1;stroke:none;stroke-width:0.22825307px;stroke-linecap:butt;stroke-linejoin:miter;stroke-opacity:1"
       xml:space="preserve"><tspan
         style="font-style:normal;font-variant:normal;font-weight:bold;font-stretch:normal;font-size:12.69999981px;font-family:arial;-inkscape-font-specification:'arial Bold';text-align:center;writing-mode:lr-tb;text-anchor:middle;stroke-width:0.22825307px"
         y="222.29753"
         x="75.125282"
         id="tspan5111"
         sodipodi:role="line">4</tspan></text>
    <text
       xml:space="preserve"
       style="font-style:normal;font-weight:normal;font-size:9.130126px;line-height:100%;font-family:sans-serif;letter-spacing:0px;word-spacing:0px;display:inline;fill:#000000;fill-opacity:1;stroke:none;stroke-width:0.22825307px;stroke-linecap:butt;stroke-linejoin:miter;stroke-opacity:1"
       x="70.783981"
       y="265.00705"
       id="text5117"
       transform="scale(0.99684986,1.0031601)"><tspan
         sodipodi:role="line"
         id="tspan5115"
         x="70.783981"
         y="265.00705"
         style="font-style:normal;font-variant:normal;font-weight:bold;font-stretch:normal;font-size:12.69999981px;font-family:arial;-inkscape-font-specification:'arial Bold';text-align:center;writing-mode:lr-tb;text-anchor:middle;stroke-width:0.22825307px">5</tspan></text>
    <path
       d="M -107.2,46.300007 A 12,12 0 0 1 -119.19691,58.300006 12,12 0 0 1 -131.2,46.306185 12,12 0 0 1 -119.20926,34.30001 12,12 0 0 1 -107.2,46.28765 l -12,0.01236 z"
       sodipodi:end="6.2821556"
       sodipodi:start="0"
       sodipodi:ry="12"
       sodipodi:rx="12"
       sodipodi:cy="46.300007"
       sodipodi:cx="-119.2"
       sodipodi:type="arc"
       id="path5831"
       style="display:inline;opacity:1;fill:#000000;fill-opacity:1;fill-rule:nonzero;stroke:none;stroke-width:3.55946875;stroke-miterlimit:4;stroke-dasharray:none;stroke-opacity:1"
       transform="scale(-1,1)" />
    <path
       style="display:inline;opacity:1;fill:#000000;fill-opacity:1;fill-rule:nonzero;stroke:none;stroke-width:4.28619146;stroke-miterlimit:4;stroke-dasharray:none;stroke-opacity:1"
       id="path5833"
       sodipodi:type="arc"
       sodipodi:cx="-122.65001"
       sodipodi:cy="84.450012"
       sodipodi:rx="14.45"
       sodipodi:ry="14.45"
       sodipodi:start="0"
       sodipodi:end="6.2821556"
       d="m -108.20001,84.450012 a 14.45,14.45 0 0 1 -14.44628,14.45 14.45,14.45 0 0 1 -14.45372,-14.44256 14.45,14.45 0 0 1 14.43884,-14.457435 14.45,14.45 0 0 1 14.46115,14.435116 l -14.44999,0.01488 z"
       transform="scale(-1,1)" />
    <path
       d="m -111.40001,122.95002 a 14.45,14.45 0 0 1 -14.44628,14.45 14.45,14.45 0 0 1 -14.45372,-14.44256 14.45,14.45 0 0 1 14.43884,-14.45744 14.45,14.45 0 0 1 14.46115,14.43512 l -14.44999,0.0149 z"
       sodipodi:end="6.2821556"
       sodipodi:start="0"
       sodipodi:ry="14.45"
       sodipodi:rx="14.45"
       sodipodi:cy="122.95002"
       sodipodi:cx="-125.85001"
       sodipodi:type="arc"
       id="path5835"
       style="display:inline;opacity:1;fill:#000000;fill-opacity:1;fill-rule:nonzero;stroke:none;stroke-width:4.28619146;stroke-miterlimit:4;stroke-dasharray:none;stroke-opacity:1"
       transform="scale(-1,1)" />
    <path
       style="display:inline;opacity:1;fill:#000000;fill-opacity:1;fill-rule:nonzero;stroke:none;stroke-width:4.28619146;stroke-miterlimit:4;stroke-dasharray:none;stroke-opacity:1"
       id="path5837"
       sodipodi:type="arc"
       sodipodi:cx="-131.45001"
       sodipodi:cy="172.35001"
       sodipodi:rx="14.45"
       sodipodi:ry="14.45"
       sodipodi:start="0"
       sodipodi:end="6.2821556"
       d="m -117.00001,172.35001 a 14.45,14.45 0 0 1 -14.44628,14.45 14.45,14.45 0 0 1 -14.45372,-14.44256 14.45,14.45 0 0 1 14.43884,-14.45744 14.45,14.45 0 0 1 14.46115,14.43512 l -14.44999,0.0149 z"
       transform="scale(-1,1)" />
    <path
       d="M -121.8,217.95 A 14.45,14.45 0 0 1 -136.24628,232.4 14.45,14.45 0 0 1 -150.7,217.95744 14.45,14.45 0 0 1 -136.26116,203.5 a 14.45,14.45 0 0 1 14.46115,14.43512 L -136.25,217.95 Z"
       sodipodi:end="6.2821556"
       sodipodi:start="0"
       sodipodi:ry="14.45"
       sodipodi:rx="14.45"
       sodipodi:cy="217.95"
       sodipodi:cx="-136.25"
       sodipodi:type="arc"
       id="path5839"
       style="display:inline;opacity:1;fill:#000000;fill-opacity:1;fill-rule:nonzero;stroke:none;stroke-width:4.28619146;stroke-miterlimit:4;stroke-dasharray:none;stroke-opacity:1"
       transform="scale(-1,1)" />
    <path
       style="display:inline;opacity:1;fill:#000000;fill-opacity:1;fill-rule:nonzero;stroke:none;stroke-width:4.28619146;stroke-miterlimit:4;stroke-dasharray:none;stroke-opacity:1"
       id="path5841"
       sodipodi:type="arc"
       sodipodi:cx="-140.45001"
       sodipodi:cy="260.54999"
       sodipodi:rx="14.45"
       sodipodi:ry="14.45"
       sodipodi:start="0"
       sodipodi:end="6.2821556"
       d="m -126.00001,260.54999 a 14.45,14.45 0 0 1 -14.44628,14.45 14.45,14.45 0 0 1 -14.45372,-14.44256 14.45,14.45 0 0 1 14.43884,-14.45744 14.45,14.45 0 0 1 14.46115,14.43512 l -14.44999,0.0149 z"
       transform="scale(-1,1)" />
    <path
       style="display:inline;opacity:1;fill:#ffffff;fill-opacity:1;fill-rule:nonzero;stroke:none;stroke-width:3.15902877;stroke-miterlimit:4;stroke-dasharray:none;stroke-opacity:1"
       id="path5843"
       sodipodi:type="arc"
       sodipodi:cx="-119.2"
       sodipodi:cy="46.300007"
       sodipodi:rx="10.65"
       sodipodi:ry="10.65"
       sodipodi:start="0"
       sodipodi:end="6.2821556"
       d="M -108.55,46.300007 A 10.65,10.65 0 0 1 -119.19726,56.950006 10.65,10.65 0 0 1 -129.85,46.30549 10.65,10.65 0 0 1 -119.20822,35.65001 10.65,10.65 0 0 1 -108.55,46.28904 l -10.65,0.01097 z"
       transform="scale(-1,1)" />
    <path
       d="m -109.75001,84.500008 a 13,13 0 0 1 -12.99665,12.999999 13,13 0 0 1 -13.00335,-12.993306 13,13 0 0 1 12.98996,-13.006689 13,13 0 0 1 13.01004,12.986609 l -13,0.01339 z"
       sodipodi:end="6.2821556"
       sodipodi:start="0"
       sodipodi:ry="13"
       sodipodi:rx="13"
       sodipodi:cy="84.500008"
       sodipodi:cx="-122.75001"
       sodipodi:type="arc"
       id="path5845"
       style="display:inline;opacity:1;fill:#ffffff;fill-opacity:1;fill-rule:nonzero;stroke:none;stroke-width:3.85609055;stroke-miterlimit:4;stroke-dasharray:none;stroke-opacity:1"
       transform="scale(-1,1)" />
    <path
       style="display:inline;opacity:1;fill:#ffffff;fill-opacity:1;fill-rule:nonzero;stroke:none;stroke-width:3.85609055;stroke-miterlimit:4;stroke-dasharray:none;stroke-opacity:1"
       id="path5847"
       sodipodi:type="arc"
       sodipodi:cx="-125.95"
       sodipodi:cy="123.00001"
       sodipodi:rx="13"
       sodipodi:ry="13"
       sodipodi:start="0"
       sodipodi:end="6.2821556"
       d="m -112.95,123.00001 a 13,13 0 0 1 -12.99665,13 13,13 0 0 1 -13.00335,-12.99331 13,13 0 0 1 12.98996,-13.00669 13,13 0 0 1 13.01004,12.98661 l -13,0.0134 z"
       transform="scale(-1,1)" />
    <path
       d="m -118.55,172.39999 a 13,13 0 0 1 -12.99666,13 13,13 0 0 1 -13.00334,-12.9933 13,13 0 0 1 12.98996,-13.00669 13,13 0 0 1 13.01003,12.98661 l -12.99999,0.0134 z"
       sodipodi:end="6.2821556"
       sodipodi:start="0"
       sodipodi:ry="13"
       sodipodi:rx="13"
       sodipodi:cy="172.39999"
       sodipodi:cx="-131.55"
       sodipodi:type="arc"
       id="path5849"
       style="display:inline;opacity:1;fill:#ffffff;fill-opacity:1;fill-rule:nonzero;stroke:none;stroke-width:3.85609055;stroke-miterlimit:4;stroke-dasharray:none;stroke-opacity:1"
       transform="scale(-1,1)" />
    <path
       style="display:inline;opacity:1;fill:#ffffff;fill-opacity:1;fill-rule:nonzero;stroke:none;stroke-width:3.85609055;stroke-miterlimit:4;stroke-dasharray:none;stroke-opacity:1"
       id="path5851"
       sodipodi:type="arc"
       sodipodi:cx="-136.35001"
       sodipodi:cy="218"
       sodipodi:rx="13"
       sodipodi:ry="13"
       sodipodi:start="0"
       sodipodi:end="6.2821556"
       d="M -123.35001,218 A 13,13 0 0 1 -136.34666,231 13,13 0 0 1 -149.35,218.00669 13,13 0 0 1 -136.36005,205 a 13,13 0 0 1 13.01004,12.98661 l -13,0.0134 z"
       transform="scale(-1,1)" />
    <path
       d="m -127.55,260.59998 a 13,13 0 0 1 -12.99666,13 13,13 0 0 1 -13.00334,-12.99331 13,13 0 0 1 12.98996,-13.00669 13,13 0 0 1 13.01003,12.98661 l -12.99999,0.0134 z"
       sodipodi:end="6.2821556"
       sodipodi:start="0"
       sodipodi:ry="13"
       sodipodi:rx="13"
       sodipodi:cy="260.59998"
       sodipodi:cx="-140.55"
       sodipodi:type="arc"
       id="path5853"
       style="display:inline;opacity:1;fill:#ffffff;fill-opacity:1;fill-rule:nonzero;stroke:none;stroke-width:3.85609055;stroke-miterlimit:4;stroke-dasharray:none;stroke-opacity:1"
       transform="scale(-1,1)" />
    <path
       d="m -109.50001,46.300007 a 8,8 0 0 1 -7.99794,8 8,8 0 0 1 -8.00206,-7.995881 8,8 0 0 1 7.99382,-8.004117 8,8 0 0 1 8.00618,7.99176 l -8,0.0082 z"
       sodipodi:end="6.2821556"
       sodipodi:start="0"
       sodipodi:ry="8"
       sodipodi:rx="8"
       sodipodi:cy="46.300007"
       sodipodi:cx="-117.50001"
       sodipodi:type="arc"
       id="path5855"
       style="display:inline;opacity:1;fill:#000000;fill-opacity:1;fill-rule:nonzero;stroke:none;stroke-width:2.37297893;stroke-miterlimit:4;stroke-dasharray:none;stroke-opacity:1"
       transform="scale(-1,1)" />
    <path
       style="display:inline;opacity:1;fill:#000000;fill-opacity:1;fill-rule:nonzero;stroke:none;stroke-width:2.89206648;stroke-miterlimit:4;stroke-dasharray:none;stroke-opacity:1"
       id="path5857"
       sodipodi:type="arc"
       sodipodi:cx="-120.90001"
       sodipodi:cy="84.875008"
       sodipodi:rx="9.75"
       sodipodi:ry="9.75"
       sodipodi:start="0"
       sodipodi:end="6.2821556"
       d="m -111.15001,84.875008 a 9.75,9.75 0 0 1 -9.74749,9.749999 9.75,9.75 0 0 1 -9.75251,-9.74498 9.75,9.75 0 0 1 9.74247,-9.755016 9.75,9.75 0 0 1 9.75753,9.739957 l -9.75,0.01004 z"
       transform="scale(-1,1)" />
    <path
       d="m -114.35001,123.37501 a 9.75,9.75 0 0 1 -9.74749,9.75 9.75,9.75 0 0 1 -9.75251,-9.74498 9.75,9.75 0 0 1 9.74247,-9.75502 9.75,9.75 0 0 1 9.75752,9.73996 l -9.74999,0.01 z"
       sodipodi:end="6.2821556"
       sodipodi:start="0"
       sodipodi:ry="9.75"
       sodipodi:rx="9.75"
       sodipodi:cy="123.37501"
       sodipodi:cx="-124.10001"
       sodipodi:type="arc"
       id="path5859"
       style="display:inline;opacity:1;fill:#000000;fill-opacity:1;fill-rule:nonzero;stroke:none;stroke-width:2.89206648;stroke-miterlimit:4;stroke-dasharray:none;stroke-opacity:1"
       transform="scale(-1,1)" />
    <path
       style="display:inline;opacity:1;fill:#000000;fill-opacity:1;fill-rule:nonzero;stroke:none;stroke-width:2.89206648;stroke-miterlimit:4;stroke-dasharray:none;stroke-opacity:1"
       id="path5861"
       sodipodi:type="arc"
       sodipodi:cx="-129.70001"
       sodipodi:cy="172.77499"
       sodipodi:rx="9.75"
       sodipodi:ry="9.75"
       sodipodi:start="0"
       sodipodi:end="6.2821556"
       d="m -119.95001,172.77499 a 9.75,9.75 0 0 1 -9.74749,9.75 9.75,9.75 0 0 1 -9.75251,-9.74498 9.75,9.75 0 0 1 9.74247,-9.75501 9.75,9.75 0 0 1 9.75752,9.73995 l -9.74999,0.01 z"
       transform="scale(-1,1)" />
    <path
       d="m -124.75,218.375 a 9.75,9.75 0 0 1 -9.74749,9.75 9.75,9.75 0 0 1 -9.75251,-9.74498 9.75,9.75 0 0 1 9.74247,-9.75502 9.75,9.75 0 0 1 9.75752,9.73996 l -9.74999,0.01 z"
       sodipodi:end="6.2821556"
       sodipodi:start="0"
       sodipodi:ry="9.75"
       sodipodi:rx="9.75"
       sodipodi:cy="218.375"
       sodipodi:cx="-134.5"
       sodipodi:type="arc"
       id="path5863"
       style="display:inline;opacity:1;fill:#000000;fill-opacity:1;fill-rule:nonzero;stroke:none;stroke-width:2.89206648;stroke-miterlimit:4;stroke-dasharray:none;stroke-opacity:1"
       transform="scale(-1,1)" />
    <path
       style="display:inline;opacity:1;fill:#000000;fill-opacity:1;fill-rule:nonzero;stroke:none;stroke-width:2.89206648;stroke-miterlimit:4;stroke-dasharray:none;stroke-opacity:1"
       id="path5865"
       sodipodi:type="arc"
       sodipodi:cx="-138.70001"
       sodipodi:cy="260.97498"
       sodipodi:rx="9.75"
       sodipodi:ry="9.75"
       sodipodi:start="0"
       sodipodi:end="6.2821556"
       d="m -128.95001,260.97498 a 9.75,9.75 0 0 1 -9.74749,9.75 9.75,9.75 0 0 1 -9.75251,-9.74498 9.75,9.75 0 0 1 9.74247,-9.75502 9.75,9.75 0 0 1 9.75752,9.73996 l -9.74999,0.01 z"
       transform="scale(-1,1)" />
    <path
       style="display:inline;opacity:1;fill:#ffffff;fill-opacity:1;fill-rule:nonzero;stroke:none;stroke-width:1.97253978;stroke-miterlimit:4;stroke-dasharray:none;stroke-opacity:1"
       id="path5867"
       sodipodi:type="arc"
       sodipodi:cx="-117.50001"
       sodipodi:cy="46.300007"
       sodipodi:rx="6.6500001"
       sodipodi:ry="6.6500001"
       sodipodi:start="0"
       sodipodi:end="6.2821556"
       d="m -110.85001,46.300007 a 6.6500001,6.6500001 0 0 1 -6.64829,6.65 6.6500001,6.6500001 0 0 1 -6.65171,-6.646576 6.6500001,6.6500001 0 0 1 6.64487,-6.653422 6.6500001,6.6500001 0 0 1 6.65513,6.64315 l -6.65,0.0068 z"
       transform="scale(-1,1)" />
    <path
       d="m -112.57501,84.875008 a 8.3249998,8.3249998 0 0 1 -8.32286,8.324999 8.3249998,8.3249998 0 0 1 -8.32714,-8.320713 8.3249998,8.3249998 0 0 1 8.31857,-8.329284 8.3249998,8.3249998 0 0 1 8.33143,8.316425 l -8.325,0.0086 z"
       sodipodi:end="6.2821556"
       sodipodi:start="0"
       sodipodi:ry="8.3249998"
       sodipodi:rx="8.3249998"
       sodipodi:cy="84.875008"
       sodipodi:cx="-120.90001"
       sodipodi:type="arc"
       id="path5869"
       style="display:inline;opacity:1;fill:#ffffff;fill-opacity:1;fill-rule:nonzero;stroke:none;stroke-width:2.46938109;stroke-miterlimit:4;stroke-dasharray:none;stroke-opacity:1"
       transform="scale(-1,1)" />
    <path
       style="display:inline;opacity:1;fill:#ffffff;fill-opacity:1;fill-rule:nonzero;stroke:none;stroke-width:2.46938109;stroke-miterlimit:4;stroke-dasharray:none;stroke-opacity:1"
       id="path5871"
       sodipodi:type="arc"
       sodipodi:cx="-124.10001"
       sodipodi:cy="123.37501"
       sodipodi:rx="8.3249998"
       sodipodi:ry="8.3249998"
       sodipodi:start="0"
       sodipodi:end="6.2821556"
       d="m -115.77501,123.37501 a 8.3249998,8.3249998 0 0 1 -8.32286,8.325 8.3249998,8.3249998 0 0 1 -8.32714,-8.32072 8.3249998,8.3249998 0 0 1 8.31857,-8.32928 8.3249998,8.3249998 0 0 1 8.33142,8.31643 l -8.32499,0.009 z"
       transform="scale(-1,1)" />
    <path
       d="m -121.37501,172.77499 a 8.3249998,8.3249998 0 0 1 -8.32286,8.325 8.3249998,8.3249998 0 0 1 -8.32714,-8.32071 8.3249998,8.3249998 0 0 1 8.31857,-8.32928 8.3249998,8.3249998 0 0 1 8.33142,8.31642 l -8.32499,0.009 z"
       sodipodi:end="6.2821556"
       sodipodi:start="0"
       sodipodi:ry="8.3249998"
       sodipodi:rx="8.3249998"
       sodipodi:cy="172.77499"
       sodipodi:cx="-129.70001"
       sodipodi:type="arc"
       id="path5873"
       style="display:inline;opacity:1;fill:#ffffff;fill-opacity:1;fill-rule:nonzero;stroke:none;stroke-width:2.46938109;stroke-miterlimit:4;stroke-dasharray:none;stroke-opacity:1"
       transform="scale(-1,1)" />
    <path
       style="display:inline;opacity:1;fill:#ffffff;fill-opacity:1;fill-rule:nonzero;stroke:none;stroke-width:2.46938109;stroke-miterlimit:4;stroke-dasharray:none;stroke-opacity:1"
       id="path5875"
       sodipodi:type="arc"
       sodipodi:cx="-134.5"
       sodipodi:cy="218.375"
       sodipodi:rx="8.3249998"
       sodipodi:ry="8.3249998"
       sodipodi:start="0"
       sodipodi:end="6.2821556"
       d="m -126.175,218.375 a 8.3249998,8.3249998 0 0 1 -8.32286,8.325 8.3249998,8.3249998 0 0 1 -8.32714,-8.32071 8.3249998,8.3249998 0 0 1 8.31857,-8.32929 8.3249998,8.3249998 0 0 1 8.33143,8.31643 l -8.325,0.009 z"
       transform="scale(-1,1)" />
    <path
       d="m -130.37501,260.97498 a 8.3249998,8.3249998 0 0 1 -8.32286,8.325 8.3249998,8.3249998 0 0 1 -8.32714,-8.32072 8.3249998,8.3249998 0 0 1 8.31857,-8.32928 8.3249998,8.3249998 0 0 1 8.33142,8.31642 l -8.32499,0.009 z"
       sodipodi:end="6.2821556"
       sodipodi:start="0"
       sodipodi:ry="8.3249998"
       sodipodi:rx="8.3249998"
       sodipodi:cy="260.97498"
       sodipodi:cx="-138.70001"
       sodipodi:type="arc"
       id="path5877"
       style="display:inline;opacity:1;fill:#ffffff;fill-opacity:1;fill-rule:nonzero;stroke:none;stroke-width:2.46938109;stroke-miterlimit:4;stroke-dasharray:none;stroke-opacity:1"
       transform="scale(-1,1)" />
    <text
       transform="scale(-0.99684986,1.0031601)"
       id="text5454"
       y="54.830509"
       x="-114.98734"
       style="font-style:normal;font-weight:normal;font-size:9.13012695px;line-height:100%;font-family:sans-serif;letter-spacing:0px;word-spacing:0px;display:inline;fill:#000000;fill-opacity:1;stroke:none;stroke-width:0.22825307px;stroke-linecap:butt;stroke-linejoin:miter;stroke-opacity:1"
       xml:space="preserve"><tspan
         style="font-style:normal;font-variant:normal;font-weight:normal;font-stretch:normal;font-size:14.60819626px;font-family:arial;-inkscape-font-specification:arial;text-align:center;writing-mode:lr-tb;text-anchor:middle;stroke-width:0.22825307px"
         y="54.830509"
         x="-114.98734"
         id="tspan5452"
         sodipodi:role="line">*</tspan></text>
    <text
       xml:space="preserve"
       style="font-style:normal;font-weight:normal;font-size:9.13012695px;line-height:100%;font-family:sans-serif;letter-spacing:0px;word-spacing:0px;display:inline;fill:#000000;fill-opacity:1;stroke:none;stroke-width:0.22825307px;stroke-linecap:butt;stroke-linejoin:miter;stroke-opacity:1"
       x="121.92522"
       y="88.470444"
       id="text5552"
       transform="scale(0.99684986,1.0031601)"><tspan
         sodipodi:role="line"
         id="tspan5550"
         x="121.92522"
         y="88.470444"
         style="font-style:normal;font-variant:normal;font-weight:bold;font-stretch:normal;font-size:12.69999981px;font-family:arial;-inkscape-font-specification:'arial Bold';text-align:center;writing-mode:lr-tb;text-anchor:middle;stroke-width:0.22825307px">1</tspan></text>
    <text
       transform="scale(0.99684986,1.0031601)"
       id="text5556"
       y="127.59681"
       x="125.30023"
       style="font-style:normal;font-weight:normal;font-size:9.13012695px;line-height:100%;font-family:sans-serif;letter-spacing:0px;word-spacing:0px;display:inline;fill:#000000;fill-opacity:1;stroke:none;stroke-width:0.22825307px;stroke-linecap:butt;stroke-linejoin:miter;stroke-opacity:1"
       xml:space="preserve"><tspan
         style="font-style:normal;font-variant:normal;font-weight:bold;font-stretch:normal;font-size:12.69999981px;font-family:arial;-inkscape-font-specification:'arial Bold';text-align:center;writing-mode:lr-tb;text-anchor:middle;stroke-width:0.22825307px"
         y="127.59681"
         x="125.30023"
         id="tspan5554"
         sodipodi:role="line">2</tspan></text>
    <text
       xml:space="preserve"
       style="font-style:normal;font-weight:normal;font-size:9.13012695px;line-height:100%;font-family:sans-serif;letter-spacing:0px;word-spacing:0px;display:inline;fill:#000000;fill-opacity:1;stroke:none;stroke-width:0.22825307px;stroke-linecap:butt;stroke-linejoin:miter;stroke-opacity:1"
       x="130.23691"
       y="177.28426"
       id="text5560"
       transform="scale(0.99684986,1.0031601)"><tspan
         sodipodi:role="line"
         id="tspan5558"
         x="130.23691"
         y="177.28426"
         style="font-style:normal;font-variant:normal;font-weight:bold;font-stretch:normal;font-size:12.69999981px;font-family:arial;-inkscape-font-specification:'arial Bold';text-align:center;writing-mode:lr-tb;text-anchor:middle;stroke-width:0.22825307px">3</tspan></text>
    <text
       transform="scale(0.99684986,1.0031601)"
       id="text5564"
       y="222.29753"
       x="135.60036"
       style="font-style:normal;font-weight:normal;font-size:9.13012695px;line-height:100%;font-family:sans-serif;letter-spacing:0px;word-spacing:0px;display:inline;fill:#000000;fill-opacity:1;stroke:none;stroke-width:0.22825307px;stroke-linecap:butt;stroke-linejoin:miter;stroke-opacity:1"
       xml:space="preserve"><tspan
         style="font-style:normal;font-variant:normal;font-weight:bold;font-stretch:normal;font-size:12.69999981px;font-family:arial;-inkscape-font-specification:'arial Bold';text-align:center;writing-mode:lr-tb;text-anchor:middle;stroke-width:0.22825307px"
         y="222.29753"
         x="135.60036"
         id="tspan5562"
         sodipodi:role="line">4</tspan></text>
    <text
       xml:space="preserve"
       style="font-style:normal;font-weight:normal;font-size:9.13012695px;line-height:100%;font-family:sans-serif;letter-spacing:0px;word-spacing:0px;display:inline;fill:#000000;fill-opacity:1;stroke:none;stroke-width:0.22825307px;stroke-linecap:butt;stroke-linejoin:miter;stroke-opacity:1"
       x="139.70601"
       y="265.00705"
       id="text5568"
       transform="scale(0.99684986,1.0031601)"><tspan
         sodipodi:role="line"
         id="tspan5566"
         x="139.70601"
         y="265.00705"
         style="font-style:normal;font-variant:normal;font-weight:bold;font-stretch:normal;font-size:12.69999981px;font-family:arial;-inkscape-font-specification:'arial Bold';text-align:center;writing-mode:lr-tb;text-anchor:middle;stroke-width:0.22825307px">5</tspan></text>
  </g>
</svg>
